<svg xmlns="http://www.w3.org/2000/svg" viewBox="0 0 1863.8500000000001 806" width="1863.8500000000001" height="806" style="--bg:#1a1b26;--fg:#a9b1d6;--line:#3d59a1;--accent:#7aa2f7;--muted:#565f89;background:var(--bg)">
<style>
  @import url('https://fonts.googleapis.com/css2?family=Inter:wght@400;500;600;700&amp;display=swap');
  text { font-family: 'Inter', system-ui, sans-serif; }
  svg {
    /* Derived from --bg and --fg (overridable via --line, --accent, etc.) */
    --_text:          var(--fg);
    --_text-sec:      var(--muted, color-mix(in srgb, var(--fg) 60%, var(--bg)));
    --_text-muted:    var(--muted, color-mix(in srgb, var(--fg) 40%, var(--bg)));
    --_text-faint:    color-mix(in srgb, var(--fg) 25%, var(--bg));
    --_line:          var(--line, color-mix(in srgb, var(--fg) 30%, var(--bg)));
    --_arrow:         var(--accent, color-mix(in srgb, var(--fg) 50%, var(--bg)));
    --_node-fill:     var(--surface, color-mix(in srgb, var(--fg) 3%, var(--bg)));
    --_node-stroke:   var(--border, color-mix(in srgb, var(--fg) 20%, var(--bg)));
    --_group-fill:    var(--bg);
    --_group-hdr:     color-mix(in srgb, var(--fg) 5%, var(--bg));
    --_inner-stroke:  color-mix(in srgb, var(--fg) 12%, var(--bg));
    --_key-badge:     color-mix(in srgb, var(--fg) 10%, var(--bg));
  }
</style>
<defs>
  <marker id="arrowhead" markerWidth="8" markerHeight="4.8" refX="8" refY="2.4" orient="auto">
    <polygon points="0 0, 8 2.4, 0 4.8" fill="var(--_arrow)" />
  </marker>
  <marker id="arrowhead-start" markerWidth="8" markerHeight="4.8" refX="0" refY="2.4" orient="auto-start-reverse">
    <polygon points="8 0, 0 2.4, 8 4.8" fill="var(--_arrow)" />
  </marker>
</defs>
<rect x="194.0999999999999" y="40" width="783.0450000000001" height="726" rx="0" ry="0" fill="var(--_group-fill)" stroke="var(--_node-stroke)" stroke-width="1" />
<rect x="194.0999999999999" y="40" width="783.0450000000001" height="28" rx="0" ry="0" fill="var(--_group-hdr)" stroke="var(--_node-stroke)" stroke-width="1" />
<text x="206.0999999999999" y="54" dy="0.35em" font-size="12" font-weight="600" fill="var(--_text-sec)">Deep Agents Orchestrator</text>
<rect x="1412.4" y="382" width="411.45000000000005" height="364" rx="0" ry="0" fill="var(--_group-fill)" stroke="var(--_node-stroke)" stroke-width="1" />
<rect x="1412.4" y="382" width="411.45000000000005" height="28" rx="0" ry="0" fill="var(--_group-hdr)" stroke="var(--_node-stroke)" stroke-width="1" />
<text x="1424.4" y="396" dy="0.35em" font-size="12" font-weight="600" fill="var(--_text-sec)">3-Layer Memory System</text>
<rect x="1428.4" y="418" width="379.45000000000005" height="116" rx="0" ry="0" fill="var(--_group-fill)" stroke="var(--_node-stroke)" stroke-width="1" />
<rect x="1428.4" y="418" width="379.45000000000005" height="28" rx="0" ry="0" fill="var(--_group-hdr)" stroke="var(--_node-stroke)" stroke-width="1" />
<text x="1440.4" y="432" dy="0.35em" font-size="12" font-weight="600" fill="var(--_text-sec)">Layer 1: Structured</text>
<rect x="1428.4" y="518" width="379.45000000000005" height="116" rx="0" ry="0" fill="var(--_group-fill)" stroke="var(--_node-stroke)" stroke-width="1" />
<rect x="1428.4" y="518" width="379.45000000000005" height="28" rx="0" ry="0" fill="var(--_group-hdr)" stroke="var(--_node-stroke)" stroke-width="1" />
<text x="1440.4" y="532" dy="0.35em" font-size="12" font-weight="600" fill="var(--_text-sec)">Layer 2: Semantic</text>
<rect x="1428.4" y="618" width="379.45000000000005" height="116" rx="0" ry="0" fill="var(--_group-fill)" stroke="var(--_node-stroke)" stroke-width="1" />
<rect x="1428.4" y="618" width="379.45000000000005" height="28" rx="0" ry="0" fill="var(--_group-hdr)" stroke="var(--_node-stroke)" stroke-width="1" />
<text x="1440.4" y="632" dy="0.35em" font-size="12" font-weight="600" fill="var(--_text-sec)">Layer 3: Knowledge Graph</text>
<rect x="1249.145" y="213" width="455.1800000000002" height="112" rx="0" ry="0" fill="var(--_group-fill)" stroke="var(--_node-stroke)" stroke-width="1" />
<rect x="1249.145" y="213" width="455.1800000000002" height="28" rx="0" ry="0" fill="var(--_group-hdr)" stroke="var(--_node-stroke)" stroke-width="1" />
<text x="1261.145" y="227" dy="0.35em" font-size="12" font-weight="600" fill="var(--_text-sec)">RAG Pipeline</text>
<rect x="1088.4" y="386" width="302" height="380" rx="0" ry="0" fill="var(--_group-fill)" stroke="var(--_node-stroke)" stroke-width="1" />
<rect x="1088.4" y="386" width="302" height="28" rx="0" ry="0" fill="var(--_group-hdr)" stroke="var(--_node-stroke)" stroke-width="1" />
<text x="1100.4" y="400" dy="0.35em" font-size="12" font-weight="600" fill="var(--_text-sec)">Observability</text>
<polyline points="106.04999999999995,305 106.04999999999995,325 328.625,325 328.625,576" fill="none" stroke="var(--_line)" stroke-width="0.75" marker-end="url(#arrowhead)" />
<polyline points="441.3000000000002,132 441.3000000000002,152 913.105,152 913.105,287 1167.145,287" fill="none" stroke="var(--_line)" stroke-width="0.75" marker-end="url(#arrowhead)" />
<polyline points="441.3000000000002,132 441.3000000000002,152 702.065,152 702.065,287 1083.145,287" fill="none" stroke="var(--_line)" stroke-width="0.75" marker-end="url(#arrowhead)" />
<polyline points="441.3000000000002,132 441.3000000000002,152 468.145,152 468.145,287 999.145,287" fill="none" stroke="var(--_line)" stroke-width="0.75" marker-end="url(#arrowhead)" />
<polyline points="1494.2625,305 1494.2625,325 1618.1250000000002,325 1618.125,594" fill="none" stroke="var(--_line)" stroke-width="0.75" marker-end="url(#arrowhead)" />
<polyline points="441.3000000000002,132 441.3000000000002,152 381.2249999999999,152 381.2249999999999,594 1114.5000000000002,594" fill="none" stroke="var(--_line)" stroke-width="0.75" stroke-dasharray="4 4" marker-end="url(#arrowhead)" />
<polyline points="1494.2625,305 1494.2625,325 1370.4,325 1370.4,594 1318.1000000000001,594" fill="none" stroke="var(--_line)" stroke-width="0.75" stroke-dasharray="4 4" marker-end="url(#arrowhead)" />
<polyline points="1197.145,305 1197.145,594 1114.5000000000002,594" fill="none" stroke="var(--_line)" stroke-width="0.75" stroke-dasharray="4 4" marker-end="url(#arrowhead)" />
<polyline points="441.3000000000002,132 441.3000000000002,152 287.6624999999999,152 287.6624999999999,287 172.09999999999997,287" fill="none" stroke="var(--_line)" stroke-width="0.75" marker-end="url(#arrowhead)" />
<rect x="292.025" y="360" width="73.2" height="27" rx="4" ry="4" fill="var(--bg)" stroke="var(--_inner-stroke)" stroke-width="0.5" />
<text x="328.625" y="373.5" text-anchor="middle" dy="0.35em" font-size="11" font-weight="400" fill="var(--_text-muted)">user input</text>
<rect x="865.065" y="187" width="96.08" height="27" rx="4" ry="4" fill="var(--bg)" stroke="var(--_inner-stroke)" stroke-width="0.5" />
<text x="913.105" y="200.5" text-anchor="middle" dy="0.35em" font-size="11" font-weight="400" fill="var(--_text-muted)">8 memory tools</text>
<rect x="551.065" y="187" width="302" height="27" rx="4" ry="4" fill="var(--bg)" stroke="var(--_inner-stroke)" stroke-width="0.5" />
<text x="702.065" y="200.5" text-anchor="middle" dy="0.35em" font-size="11" font-weight="400" fill="var(--_text-muted)">search_knowledge_base, search_conversation_history</text>
<rect x="397.22499999999997" y="187" width="141.84" height="27" rx="4" ry="4" fill="var(--bg)" stroke="var(--_inner-stroke)" stroke-width="0.5" />
<text x="468.145" y="200.5" text-anchor="middle" dy="0.35em" font-size="11" font-weight="400" fill="var(--_text-muted)">search_knowledge_graph</text>
<rect x="1552.9250000000002" y="360" width="130.4" height="27" rx="4" ry="4" fill="var(--bg)" stroke="var(--_inner-stroke)" stroke-width="0.5" />
<text x="1618.1250000000002" y="373.5" text-anchor="middle" dy="0.35em" font-size="11" font-weight="400" fill="var(--_text-muted)">ingest, embed, store</text>
<rect x="356.0649999999999" y="273.5" width="50.32" height="27" rx="4" ry="4" fill="var(--bg)" stroke="var(--_inner-stroke)" stroke-width="0.5" />
<text x="381.2249999999999" y="287" text-anchor="middle" dy="0.35em" font-size="11" font-weight="400" fill="var(--_text-muted)">traces</text>
<rect x="1345.24" y="360" width="50.32" height="27" rx="4" ry="4" fill="var(--bg)" stroke="var(--_inner-stroke)" stroke-width="0.5" />
<text x="1370.4" y="373.5" text-anchor="middle" dy="0.35em" font-size="11" font-weight="400" fill="var(--_text-muted)">traces</text>
<rect x="1166.2649999999999" y="360" width="61.760000000000005" height="27" rx="4" ry="4" fill="var(--bg)" stroke="var(--_inner-stroke)" stroke-width="0.5" />
<text x="1197.145" y="373.5" text-anchor="middle" dy="0.35em" font-size="11" font-weight="400" fill="var(--_text-muted)">@observe</text>
<rect x="256.7824999999999" y="187" width="61.760000000000005" height="27" rx="4" ry="4" fill="var(--bg)" stroke="var(--_inner-stroke)" stroke-width="0.5" />
<text x="287.6624999999999" y="200.5" text-anchor="middle" dy="0.35em" font-size="11" font-weight="400" fill="var(--_text-muted)">response</text>
<rect x="39.99999999999994" y="269" width="132.10000000000002" height="36" rx="0" ry="0" fill="var(--_node-fill)" stroke="var(--_node-stroke)" stroke-width="0.75" />
<rect x="216.1" y="576" width="225.05" height="36" rx="0" ry="0" fill="var(--_node-fill)" stroke="var(--_node-stroke)" stroke-width="0.75" />
<rect x="515.9975000000001" y="576" width="189.3" height="36" rx="0" ry="0" fill="var(--_node-fill)" stroke="var(--_node-stroke)" stroke-width="0.75" />
<rect x="729.2974999999999" y="576" width="175" height="36" rx="0" ry="0" fill="var(--_node-fill)" stroke="var(--_node-stroke)" stroke-width="0.75" />
<rect x="360.95000000000016" y="96" width="160.70000000000002" height="36" rx="0" ry="0" fill="var(--_node-fill)" stroke="var(--_node-stroke)" stroke-width="0.75" />
<rect x="1363.8625" y="269" width="260.8" height="36" rx="0" ry="0" fill="var(--_node-fill)" stroke="var(--_node-stroke)" stroke-width="0.75" />
<rect x="1114.5000000000002" y="576" width="203.60000000000002" height="36" rx="0" ry="0" fill="var(--_node-fill)" stroke="var(--_node-stroke)" stroke-width="0.75" />
<rect x="1516.325" y="476" width="203.60000000000002" height="36" rx="0" ry="0" fill="var(--_node-fill)" stroke="var(--_node-stroke)" stroke-width="0.75" />
<rect x="1448.4" y="576" width="339.45000000000005" height="36" rx="0" ry="0" fill="var(--_node-fill)" stroke="var(--_node-stroke)" stroke-width="0.75" />
<rect x="1473.4250000000002" y="676" width="289.40000000000003" height="36" rx="0" ry="0" fill="var(--_node-fill)" stroke="var(--_node-stroke)" stroke-width="0.75" />
<text x="106.04999999999995" y="287" text-anchor="middle" dy="0.35em" font-size="13" font-weight="500" fill="var(--_text)">User Interface</text>
<text x="328.625" y="594" text-anchor="middle" dy="0.35em" font-size="13" font-weight="500" fill="var(--_text)">Middleware Stack (8 layers)</text>
<text x="610.6475" y="594" text-anchor="middle" dy="0.35em" font-size="13" font-weight="500" fill="var(--_text)">Tool Router (11 tools)</text>
<text x="816.7974999999999" y="594" text-anchor="middle" dy="0.35em" font-size="13" font-weight="500" fill="var(--_text)">Sub-Agent Dispatcher</text>
<text x="441.3000000000002" y="114" text-anchor="middle" dy="0.35em" font-size="13" font-weight="500" fill="var(--_text)">LLM (configurable)</text>
<text x="1494.2625" y="287" text-anchor="middle" dy="0.35em" font-size="13" font-weight="500" fill="var(--_text)">LlamaIndex: Contextual Retrieval</text>
<text x="1216.3000000000002" y="594" text-anchor="middle" dy="0.35em" font-size="13" font-weight="500" fill="var(--_text)">LangFuse: Tracing + Eval</text>
<text x="1618.125" y="494" text-anchor="middle" dy="0.35em" font-size="13" font-weight="500" fill="var(--_text)">PostgreSQL: MemoryBlocks</text>
<text x="1618.125" y="594" text-anchor="middle" dy="0.35em" font-size="13" font-weight="500" fill="var(--_text)">PostgreSQL + pgvector — Hybrid Search (RRF)</text>
<text x="1618.1250000000002" y="694" text-anchor="middle" dy="0.35em" font-size="13" font-weight="500" fill="var(--_text)">FalkorDB + Graphiti — Temporal Graph</text>
</svg>