<svg xmlns="http://www.w3.org/2000/svg" viewBox="0 0 999.8500000000001 1201" width="999.8500000000001" height="1201" style="--bg:#1a1b26;--fg:#a9b1d6;--line:#3d59a1;--accent:#7aa2f7;--muted:#565f89;background:var(--bg)">
<style>
  @import url('https://fonts.googleapis.com/css2?family=Inter:wght@400;500;600;700&amp;display=swap');
  text { font-family: 'Inter', system-ui, sans-serif; }
  svg {
    /* Derived from --bg and --fg (overridable via --line, --accent, etc.) */
    --_text:          var(--fg);
    --_text-sec:      var(--muted, color-mix(in srgb, var(--fg) 60%, var(--bg)));
    --_text-muted:    var(--muted, color-mix(in srgb, var(--fg) 40%, var(--bg)));
    --_text-faint:    color-mix(in srgb, var(--fg) 25%, var(--bg));
    --_line:          var(--line, color-mix(in srgb, var(--fg) 30%, var(--bg)));
    --_arrow:         var(--accent, color-mix(in srgb, var(--fg) 50%, var(--bg)));
    --_node-fill:     var(--surface, color-mix(in srgb, var(--fg) 3%, var(--bg)));
    --_node-stroke:   var(--border, color-mix(in srgb, var(--fg) 20%, var(--bg)));
    --_group-fill:    var(--bg);
    --_group-hdr:     color-mix(in srgb, var(--fg) 5%, var(--bg));
    --_inner-stroke:  color-mix(in srgb, var(--fg) 12%, var(--bg));
    --_key-badge:     color-mix(in srgb, var(--fg) 10%, var(--bg));
  }
</style>
<defs>
  <marker id="arrowhead" markerWidth="8" markerHeight="4.8" refX="8" refY="2.4" orient="auto">
    <polygon points="0 0, 8 2.4, 0 4.8" fill="var(--_arrow)" />
  </marker>
  <marker id="arrowhead-start" markerWidth="8" markerHeight="4.8" refX="0" refY="2.4" orient="auto-start-reverse">
    <polygon points="8 0, 0 2.4, 8 4.8" fill="var(--_arrow)" />
  </marker>
</defs>
<rect x="149.82500000000005" y="553" width="628.75" height="112" rx="0" ry="0" fill="var(--_group-fill)" stroke="var(--_node-stroke)" stroke-width="1" />
<rect x="149.82500000000005" y="553" width="628.75" height="28" rx="0" ry="0" fill="var(--_group-hdr)" stroke="var(--_node-stroke)" stroke-width="1" />
<text x="161.82500000000005" y="567" dy="0.35em" font-size="12" font-weight="600" fill="var(--_text-sec)">Agent</text>
<rect x="144.6400000000001" y="40" width="712.3399999999999" height="452" rx="0" ry="0" fill="var(--_group-fill)" stroke="var(--_node-stroke)" stroke-width="1" />
<rect x="144.6400000000001" y="40" width="712.3399999999999" height="28" rx="0" ry="0" fill="var(--_group-hdr)" stroke="var(--_node-stroke)" stroke-width="1" />
<text x="156.6400000000001" y="54" dy="0.35em" font-size="12" font-weight="600" fill="var(--_text-sec)">Layer 1 — Structured Memory</text>
<rect x="40" y="726" width="404.9000000000001" height="435" rx="0" ry="0" fill="var(--_group-fill)" stroke="var(--_node-stroke)" stroke-width="1" />
<rect x="40" y="726" width="404.9000000000001" height="28" rx="0" ry="0" fill="var(--_group-hdr)" stroke="var(--_node-stroke)" stroke-width="1" />
<text x="52" y="740" dy="0.35em" font-size="12" font-weight="600" fill="var(--_text-sec)">Layer 2 — Semantic Memory</text>
<rect x="464.9000000000001" y="726" width="462.09999999999997" height="435" rx="0" ry="0" fill="var(--_group-fill)" stroke="var(--_node-stroke)" stroke-width="1" />
<rect x="464.9000000000001" y="726" width="462.09999999999997" height="28" rx="0" ry="0" fill="var(--_group-hdr)" stroke="var(--_node-stroke)" stroke-width="1" />
<text x="476.9000000000001" y="740" dy="0.35em" font-size="12" font-weight="600" fill="var(--_text-sec)">Layer 3 — Knowledge Graph</text>
<polyline points="469.20000000000005,132 469.20000000000005,152 339.94000000000005,152 339.94000000000005,252" fill="none" stroke="var(--_line)" stroke-width="0.75" />
<polyline points="339.94000000000005,299 339.94000000000005,436" fill="none" stroke="var(--_line)" stroke-width="0.75" />
<polyline points="242.45000000000005,818 242.45000000000005,938" fill="none" stroke="var(--_line)" stroke-width="0.75" />
<polyline points="242.45000000000005,985 242.45000000000005,1105" fill="none" stroke="var(--_line)" stroke-width="0.75" />
<polyline points="695.95,818 695.95,938" fill="none" stroke="var(--_line)" stroke-width="0.75" />
<polyline points="695.95,985 695.95,1105" fill="none" stroke="var(--_line)" stroke-width="0.75" />
<polyline points="469.20000000000005,609 469.20000000000005,589 598.46,589 598.46,114 663.95,114" fill="none" stroke="var(--_line)" stroke-width="0.75" marker-end="url(#arrowhead)" />
<polyline points="469.20000000000005,645 469.20000000000005,665 242.45000000000005,665 242.45000000000005,782" fill="none" stroke="var(--_line)" stroke-width="0.75" marker-end="url(#arrowhead)" />
<polyline points="469.20000000000005,645 469.20000000000005,665 695.95,665 695.95,782" fill="none" stroke="var(--_line)" stroke-width="0.75" marker-end="url(#arrowhead)" />
<polyline points="339.94000000000005,472 339.94000000000005,627 345.95000000000005,627" fill="none" stroke="var(--_line)" stroke-width="0.75" marker-end="url(#arrowhead)" />
<rect x="355.94000000000005" y="354" width="485.04" height="27" rx="4" ry="4" fill="var(--bg)" stroke="var(--_inner-stroke)" stroke-width="0.5" />
<text x="598.46" y="367.5" text-anchor="middle" dy="0.35em" font-size="11" font-weight="400" fill="var(--_text-muted)">Static blocks (persona, profile) in system prompt — dynamic blocks in user message</text>
<rect x="91.45000000000005" y="700" width="302" height="27" rx="4" ry="4" fill="var(--bg)" stroke="var(--_inner-stroke)" stroke-width="0.5" />
<text x="242.45000000000005" y="713.5" text-anchor="middle" dy="0.35em" font-size="11" font-weight="400" fill="var(--_text-muted)">search_knowledge_base, search_conversation_history</text>
<rect x="625.0300000000001" y="700" width="141.84" height="27" rx="4" ry="4" fill="var(--bg)" stroke="var(--_inner-stroke)" stroke-width="0.5" />
<text x="695.95" y="713.5" text-anchor="middle" dy="0.35em" font-size="11" font-weight="400" fill="var(--_text-muted)">search_knowledge_graph</text>
<rect x="174.64000000000004" y="527" width="330.6" height="27" rx="4" ry="4" fill="var(--bg)" stroke="var(--_inner-stroke)" stroke-width="0.5" />
<text x="339.94000000000005" y="540.5" text-anchor="middle" dy="0.35em" font-size="11" font-weight="400" fill="var(--_text-muted)">Static blocks cached in prompt, dynamic blocks per turn</text>
<rect x="345.95000000000005" y="609" width="246.50000000000003" height="36" rx="0" ry="0" fill="var(--_node-fill)" stroke="var(--_node-stroke)" stroke-width="0.75" />
<rect x="274.45000000000005" y="96" width="389.50000000000006" height="36" rx="0" ry="0" fill="var(--_node-fill)" stroke="var(--_node-stroke)" stroke-width="0.75" />
<rect x="188.09000000000003" y="259" width="303.70000000000005" height="33" fill="var(--_node-fill)" stroke="none" />
<line x1="188.09000000000003" y1="259" x2="188.09000000000003" y2="292" stroke="var(--_node-stroke)" stroke-width="0.75" />
<line x1="491.7900000000001" y1="259" x2="491.7900000000001" y2="292" stroke="var(--_node-stroke)" stroke-width="0.75" />
<ellipse cx="339.94000000000005" cy="292" rx="151.85000000000002" ry="7" fill="var(--_node-fill)" stroke="var(--_node-stroke)" stroke-width="0.75" />
<ellipse cx="339.94000000000005" cy="259" rx="151.85000000000002" ry="7" fill="var(--_node-fill)" stroke="var(--_node-stroke)" stroke-width="0.75" />
<rect x="202.39000000000004" y="436" width="275.1" height="36" rx="0" ry="0" fill="var(--_node-fill)" stroke="var(--_node-stroke)" stroke-width="0.75" />
<rect x="62.00000000000003" y="782" width="360.90000000000003" height="36" rx="0" ry="0" fill="var(--_node-fill)" stroke="var(--_node-stroke)" stroke-width="0.75" />
<rect x="72.72500000000002" y="945" width="339.45000000000005" height="33" fill="var(--_node-fill)" stroke="none" />
<line x1="72.72500000000002" y1="945" x2="72.72500000000002" y2="978" stroke="var(--_node-stroke)" stroke-width="0.75" />
<line x1="412.17500000000007" y1="945" x2="412.17500000000007" y2="978" stroke="var(--_node-stroke)" stroke-width="0.75" />
<ellipse cx="242.45000000000005" cy="978" rx="169.72500000000002" ry="7" fill="var(--_node-fill)" stroke="var(--_node-stroke)" stroke-width="0.75" />
<ellipse cx="242.45000000000005" cy="945" rx="169.72500000000002" ry="7" fill="var(--_node-fill)" stroke="var(--_node-stroke)" stroke-width="0.75" />
<rect x="101.32500000000005" y="1105" width="282.25" height="36" rx="0" ry="0" fill="var(--_node-fill)" stroke="var(--_node-stroke)" stroke-width="0.75" />
<rect x="540.5250000000001" y="782" width="310.85" height="36" rx="0" ry="0" fill="var(--_node-fill)" stroke="var(--_node-stroke)" stroke-width="0.75" />
<rect x="544.1" y="945" width="303.70000000000005" height="33" fill="var(--_node-fill)" stroke="none" />
<line x1="544.1" y1="945" x2="544.1" y2="978" stroke="var(--_node-stroke)" stroke-width="0.75" />
<line x1="847.8000000000001" y1="945" x2="847.8000000000001" y2="978" stroke="var(--_node-stroke)" stroke-width="0.75" />
<ellipse cx="695.95" cy="978" rx="151.85000000000002" ry="7" fill="var(--_node-fill)" stroke="var(--_node-stroke)" stroke-width="0.75" />
<ellipse cx="695.95" cy="945" rx="151.85000000000002" ry="7" fill="var(--_node-fill)" stroke="var(--_node-stroke)" stroke-width="0.75" />
<rect x="486.90000000000003" y="1105" width="418.1" height="36" rx="0" ry="0" fill="var(--_node-fill)" stroke="var(--_node-stroke)" stroke-width="0.75" />
<text x="469.20000000000005" y="627" text-anchor="middle" dy="0.35em" font-size="13" font-weight="500" fill="var(--_text)">System Prompt (active context)</text>
<text x="469.20000000000005" y="114" text-anchor="middle" dy="0.35em" font-size="13" font-weight="500" fill="var(--_text)">Agents conscious mind — Explicit, editable beliefs</text>
<text x="339.94000000000005" y="275.5" text-anchor="middle" dy="0.35em" font-size="13" font-weight="500" fill="var(--_text)">PostgreSQL: MemoryBlock + BlockHistory</text>
<text x="339.94000000000005" y="454" text-anchor="middle" dy="0.35em" font-size="13" font-weight="500" fill="var(--_text)">8 Memory Tools (CRUD + versioning)</text>
<text x="242.45000000000005" y="800" text-anchor="middle" dy="0.35em" font-size="13" font-weight="500" fill="var(--_text)">Meaning-based search over unstructured content</text>
<text x="242.45000000000005" y="961.5" text-anchor="middle" dy="0.35em" font-size="13" font-weight="500" fill="var(--_text)">PostgreSQL + pgvector — Hybrid Search (RRF)</text>
<text x="242.45000000000005" y="1123" text-anchor="middle" dy="0.35em" font-size="13" font-weight="500" fill="var(--_text)">Namespaces: conversations | kb_docs</text>
<text x="695.95" y="800" text-anchor="middle" dy="0.35em" font-size="13" font-weight="500" fill="var(--_text)">Temporal relationships between entities</text>
<text x="695.95" y="961.5" text-anchor="middle" dy="0.35em" font-size="13" font-weight="500" fill="var(--_text)">FalkorDB + Graphiti — Graph + Episodes</text>
<text x="695.95" y="1123" text-anchor="middle" dy="0.35em" font-size="13" font-weight="500" fill="var(--_text)">Entity extraction, fact expiration, temporal reasoning</text>
</svg>