<svg xmlns="http://www.w3.org/2000/svg" viewBox="0 0 1888.4900000000002 765" width="1888.4900000000002" height="765" style="--bg:#1a1b26;--fg:#a9b1d6;--line:#3d59a1;--accent:#7aa2f7;--muted:#565f89;background:var(--bg)">
<style>
  @import url('https://fonts.googleapis.com/css2?family=Inter:wght@400;500;600;700&amp;display=swap');
  text { font-family: 'Inter', system-ui, sans-serif; }
  svg {
    /* Derived from --bg and --fg (overridable via --line, --accent, etc.) */
    --_text:          var(--fg);
    --_text-sec:      var(--muted, color-mix(in srgb, var(--fg) 60%, var(--bg)));
    --_text-muted:    var(--muted, color-mix(in srgb, var(--fg) 40%, var(--bg)));
    --_text-faint:    color-mix(in srgb, var(--fg) 25%, var(--bg));
    --_line:          var(--line, color-mix(in srgb, var(--fg) 30%, var(--bg)));
    --_arrow:         var(--accent, color-mix(in srgb, var(--fg) 50%, var(--bg)));
    --_node-fill:     var(--surface, color-mix(in srgb, var(--fg) 3%, var(--bg)));
    --_node-stroke:   var(--border, color-mix(in srgb, var(--fg) 20%, var(--bg)));
    --_group-fill:    var(--bg);
    --_group-hdr:     color-mix(in srgb, var(--fg) 5%, var(--bg));
    --_inner-stroke:  color-mix(in srgb, var(--fg) 12%, var(--bg));
    --_key-badge:     color-mix(in srgb, var(--fg) 10%, var(--bg));
  }
</style>
<defs>
  <marker id="arrowhead" markerWidth="8" markerHeight="4.8" refX="8" refY="2.4" orient="auto">
    <polygon points="0 0, 8 2.4, 0 4.8" fill="var(--_arrow)" />
  </marker>
  <marker id="arrowhead-start" markerWidth="8" markerHeight="4.8" refX="0" refY="2.4" orient="auto-start-reverse">
    <polygon points="8 0, 0 2.4, 8 4.8" fill="var(--_arrow)" />
  </marker>
</defs>
<rect x="40" y="40" width="1788.1025000000002" height="168" rx="0" ry="0" fill="var(--_group-fill)" stroke="var(--_node-stroke)" stroke-width="1" />
<rect x="40" y="40" width="1788.1025000000002" height="28" rx="0" ry="0" fill="var(--_group-hdr)" stroke="var(--_node-stroke)" stroke-width="1" />
<text x="52" y="54" dy="0.35em" font-size="12" font-weight="600" fill="var(--_text-sec)">5 Default MemoryBlocks</text>
<rect x="60" y="76" width="603.9000000000001" height="112" rx="0" ry="0" fill="var(--_group-fill)" stroke="var(--_node-stroke)" stroke-width="1" />
<rect x="60" y="76" width="603.9000000000001" height="28" rx="0" ry="0" fill="var(--_group-hdr)" stroke="var(--_node-stroke)" stroke-width="1" />
<text x="72" y="90" dy="0.35em" font-size="12" font-weight="600" fill="var(--_text-sec)">Static — System Prompt (cached, read-only)</text>
<rect x="683.9000000000002" y="76" width="1124.2025" height="112" rx="0" ry="0" fill="var(--_group-fill)" stroke="var(--_node-stroke)" stroke-width="1" />
<rect x="683.9000000000002" y="76" width="1124.2025" height="28" rx="0" ry="0" fill="var(--_group-hdr)" stroke="var(--_node-stroke)" stroke-width="1" />
<text x="695.9000000000002" y="90" dy="0.35em" font-size="12" font-weight="600" fill="var(--_text-sec)">Dynamic — User Message (per turn, editable)</text>
<rect x="1162.0700000000002" y="309" width="686.4200000000001" height="416" rx="0" ry="0" fill="var(--_group-fill)" stroke="var(--_node-stroke)" stroke-width="1" />
<rect x="1162.0700000000002" y="309" width="686.4200000000001" height="28" rx="0" ry="0" fill="var(--_group-hdr)" stroke="var(--_node-stroke)" stroke-width="1" />
<text x="1174.0700000000002" y="323" dy="0.35em" font-size="12" font-weight="600" fill="var(--_text-sec)">Block Size Management</text>
<rect x="104.41249999999991" y="309" width="1037.6575000000003" height="163" rx="0" ry="0" fill="var(--_group-fill)" stroke="var(--_node-stroke)" stroke-width="1" />
<rect x="104.41249999999991" y="309" width="1037.6575000000003" height="28" rx="0" ry="0" fill="var(--_group-hdr)" stroke="var(--_node-stroke)" stroke-width="1" />
<text x="116.41249999999991" y="323" dy="0.35em" font-size="12" font-weight="600" fill="var(--_text-sec)">Audit Trail</text>
<polyline points="208.82500000000005,168 208.82500000000005,408.5 578.2000000000002,408.5" fill="none" stroke="var(--_line)" stroke-width="0.75" marker-end="url(#arrowhead)" />
<polyline points="500.7750000000001,168 500.7750000000001,408.5 578.2000000000002,408.5" fill="none" stroke="var(--_line)" stroke-width="0.75" marker-end="url(#arrowhead)" />
<polyline points="828.0875,168 828.0875,188 765.8000000000002,188 765.8000000000002,385" fill="none" stroke="var(--_line)" stroke-width="0.75" marker-end="url(#arrowhead)" />
<polyline points="1242.615,168 1242.615,188 1161.39,188 1161.39,345 830.8975,345 830.8975,408.5 953.4000000000002,408.5" fill="none" stroke="var(--_line)" stroke-width="0.75" marker-end="url(#arrowhead)" />
<polyline points="1637.8225000000002,168 1637.8225000000002,188 1509.1100000000001,188 1509.1100000000001,345 1014.7574999999999,345 1014.7574999999999,408.5 953.4000000000002,408.5" fill="none" stroke="var(--_line)" stroke-width="0.75" marker-end="url(#arrowhead)" />
<polyline points="828.0875,168 828.0875,188 987.5300000000001,188 987.5300000000001,345 1283.295,345 1283.295,408.5 1285.6425,408.5" fill="none" stroke="var(--_line)" stroke-width="0.75" stroke-dasharray="4 4" marker-end="url(#arrowhead)" />
<polyline points="1242.615,168 1242.615,188 1335.2500000000002,188 1335.2500000000002,345 1467.1550000000002,345 1467.1550000000002,408.5 1285.6425,408.5" fill="none" stroke="var(--_line)" stroke-width="0.75" stroke-dasharray="4 4" marker-end="url(#arrowhead)" />
<polyline points="1637.8225000000002,168 1637.8225000000002,188 1739.7775000000001,188 1739.7775000000001,408.5 1653.6925,408.5" fill="none" stroke="var(--_line)" stroke-width="0.75" stroke-dasharray="4 4" marker-end="url(#arrowhead)" />
<polyline points="1469.6675,426.5 1469.6675,649" fill="none" stroke="var(--_line)" stroke-width="0.75" stroke-dasharray="4 4" marker-end="url(#arrowhead)" />
<rect x="117.88500000000005" y="263" width="181.88" height="27" rx="4" ry="4" fill="var(--bg)" stroke="var(--_inner-stroke)" stroke-width="0.5" />
<text x="208.82500000000005" y="276.5" text-anchor="middle" dy="0.35em" font-size="11" font-weight="400" fill="var(--_text-muted)">every edit generates a record</text>
<rect x="409.8350000000001" y="263" width="181.88" height="27" rx="4" ry="4" fill="var(--bg)" stroke="var(--_inner-stroke)" stroke-width="0.5" />
<text x="500.7750000000001" y="276.5" text-anchor="middle" dy="0.35em" font-size="11" font-weight="400" fill="var(--_text-muted)">every edit generates a record</text>
<rect x="674.8600000000001" y="263" width="181.88" height="27" rx="4" ry="4" fill="var(--bg)" stroke="var(--_inner-stroke)" stroke-width="0.5" />
<text x="765.8000000000002" y="276.5" text-anchor="middle" dy="0.35em" font-size="11" font-weight="400" fill="var(--_text-muted)">every edit generates a record</text>
<rect x="1070.45" y="263" width="181.88" height="27" rx="4" ry="4" fill="var(--bg)" stroke="var(--_inner-stroke)" stroke-width="0.5" />
<text x="1161.39" y="276.5" text-anchor="middle" dy="0.35em" font-size="11" font-weight="400" fill="var(--_text-muted)">every edit generates a record</text>
<rect x="1418.17" y="263" width="181.88" height="27" rx="4" ry="4" fill="var(--bg)" stroke="var(--_inner-stroke)" stroke-width="0.5" />
<text x="1509.1100000000001" y="276.5" text-anchor="middle" dy="0.35em" font-size="11" font-weight="400" fill="var(--_text-muted)">every edit generates a record</text>
<rect x="916.6100000000001" y="263" width="141.84" height="27" rx="4" ry="4" fill="var(--bg)" stroke="var(--_inner-stroke)" stroke-width="0.5" />
<text x="987.5300000000001" y="276.5" text-anchor="middle" dy="0.35em" font-size="11" font-weight="400" fill="var(--_text-muted)">when approaching limit</text>
<rect x="1264.3300000000002" y="263" width="141.84" height="27" rx="4" ry="4" fill="var(--bg)" stroke="var(--_inner-stroke)" stroke-width="0.5" />
<text x="1335.2500000000002" y="276.5" text-anchor="middle" dy="0.35em" font-size="11" font-weight="400" fill="var(--_text-muted)">when approaching limit</text>
<rect x="1668.8575" y="263" width="141.84" height="27" rx="4" ry="4" fill="var(--bg)" stroke="var(--_inner-stroke)" stroke-width="0.5" />
<text x="1739.7775000000001" y="276.5" text-anchor="middle" dy="0.35em" font-size="11" font-weight="400" fill="var(--_text-muted)">when approaching limit</text>
<rect x="1415.9075" y="527" width="107.52000000000001" height="27" rx="4" ry="4" fill="var(--bg)" stroke="var(--_inner-stroke)" stroke-width="0.5" />
<text x="1469.6675" y="540.5" text-anchor="middle" dy="0.35em" font-size="11" font-weight="400" fill="var(--_text-muted)">overflow content</text>
<rect x="82.00000000000004" y="132" width="253.65" height="36" rx="0" ry="0" fill="var(--_node-fill)" stroke="var(--_node-stroke)" stroke-width="0.75" />
<rect x="359.6500000000001" y="132" width="282.25" height="36" rx="0" ry="0" fill="var(--_node-fill)" stroke="var(--_node-stroke)" stroke-width="0.75" />
<rect x="726.2874999999999" y="132" width="203.60000000000002" height="36" rx="0" ry="0" fill="var(--_node-fill)" stroke="var(--_node-stroke)" stroke-width="0.75" />
<rect x="1126.515" y="132" width="232.20000000000002" height="36" rx="0" ry="0" fill="var(--_node-fill)" stroke="var(--_node-stroke)" stroke-width="0.75" />
<rect x="1543.1725000000001" y="132" width="189.3" height="36" rx="0" ry="0" fill="var(--_node-fill)" stroke="var(--_node-stroke)" stroke-width="0.75" />
<rect x="1285.6425" y="390.5" width="368.05" height="36" rx="0" ry="0" fill="var(--_node-fill)" stroke="var(--_node-stroke)" stroke-width="0.75" />
<rect x="1264.1925" y="649" width="410.95000000000005" height="36" rx="0" ry="0" fill="var(--_node-fill)" stroke="var(--_node-stroke)" stroke-width="0.75" />
<rect x="578.2000000000002" y="392" width="375.20000000000005" height="33" fill="var(--_node-fill)" stroke="none" />
<line x1="578.2000000000002" y1="392" x2="578.2000000000002" y2="425" stroke="var(--_node-stroke)" stroke-width="0.75" />
<line x1="953.4000000000002" y1="392" x2="953.4000000000002" y2="425" stroke="var(--_node-stroke)" stroke-width="0.75" />
<ellipse cx="765.8000000000002" cy="425" rx="187.60000000000002" ry="7" fill="var(--_node-fill)" stroke="var(--_node-stroke)" stroke-width="0.75" />
<ellipse cx="765.8000000000002" cy="392" rx="187.60000000000002" ry="7" fill="var(--_node-fill)" stroke="var(--_node-stroke)" stroke-width="0.75" />
<text x="208.82500000000005" y="150" text-anchor="middle" dy="0.35em" font-size="13" font-weight="500" fill="var(--_text)">persona — 2000 chars, read-only</text>
<text x="500.7750000000001" y="150" text-anchor="middle" dy="0.35em" font-size="13" font-weight="500" fill="var(--_text)">user_profile — 3000 chars, editable</text>
<text x="828.0874999999999" y="150" text-anchor="middle" dy="0.35em" font-size="13" font-weight="500" fill="var(--_text)">preferences — 2000 chars</text>
<text x="1242.615" y="150" text-anchor="middle" dy="0.35em" font-size="13" font-weight="500" fill="var(--_text)">working_context — 4000 chars</text>
<text x="1637.8225000000002" y="150" text-anchor="middle" dy="0.35em" font-size="13" font-weight="500" fill="var(--_text)">learnings — 3000 chars</text>
<text x="1469.6675" y="408.5" text-anchor="middle" dy="0.35em" font-size="13" font-weight="500" fill="var(--_text)">At 80% of char_limit: auto-compress via rethink</text>
<text x="1469.6675" y="667" text-anchor="middle" dy="0.35em" font-size="13" font-weight="500" fill="var(--_text)">If still over limit: offload overflow to StoreBackend</text>
<text x="765.8000000000002" y="408.5" text-anchor="middle" dy="0.35em" font-size="13" font-weight="500" fill="var(--_text)">BlockHistory: Versioned snapshot of every change</text>
</svg>