<svg xmlns="http://www.w3.org/2000/svg" viewBox="0 0 1682.15 605" width="1682.15" height="605" style="--bg:#1a1b26;--fg:#a9b1d6;--line:#3d59a1;--accent:#7aa2f7;--muted:#565f89;background:var(--bg)">
<style>
  @import url('https://fonts.googleapis.com/css2?family=Inter:wght@400;500;600;700&amp;display=swap');
  text { font-family: 'Inter', system-ui, sans-serif; }
  svg {
    /* Derived from --bg and --fg (overridable via --line, --accent, etc.) */
    --_text:          var(--fg);
    --_text-sec:      var(--muted, color-mix(in srgb, var(--fg) 60%, var(--bg)));
    --_text-muted:    var(--muted, color-mix(in srgb, var(--fg) 40%, var(--bg)));
    --_text-faint:    color-mix(in srgb, var(--fg) 25%, var(--bg));
    --_line:          var(--line, color-mix(in srgb, var(--fg) 30%, var(--bg)));
    --_arrow:         var(--accent, color-mix(in srgb, var(--fg) 50%, var(--bg)));
    --_node-fill:     var(--surface, color-mix(in srgb, var(--fg) 3%, var(--bg)));
    --_node-stroke:   var(--border, color-mix(in srgb, var(--fg) 20%, var(--bg)));
    --_group-fill:    var(--bg);
    --_group-hdr:     color-mix(in srgb, var(--fg) 5%, var(--bg));
    --_inner-stroke:  color-mix(in srgb, var(--fg) 12%, var(--bg));
    --_key-badge:     color-mix(in srgb, var(--fg) 10%, var(--bg));
  }
</style>
<defs>
  <marker id="arrowhead" markerWidth="8" markerHeight="4.8" refX="8" refY="2.4" orient="auto">
    <polygon points="0 0, 8 2.4, 0 4.8" fill="var(--_arrow)" />
  </marker>
  <marker id="arrowhead-start" markerWidth="8" markerHeight="4.8" refX="0" refY="2.4" orient="auto-start-reverse">
    <polygon points="8 0, 0 2.4, 8 4.8" fill="var(--_arrow)" />
  </marker>
</defs>
<rect x="40" y="40" width="1602.15" height="168" rx="0" ry="0" fill="var(--_group-fill)" stroke="var(--_node-stroke)" stroke-width="1" />
<rect x="40" y="40" width="1602.15" height="28" rx="0" ry="0" fill="var(--_group-hdr)" stroke="var(--_node-stroke)" stroke-width="1" />
<text x="52" y="54" dy="0.35em" font-size="12" font-weight="600" fill="var(--_text-sec)">Agent Turn</text>
<rect x="60" y="76" width="433.5" height="112" rx="0" ry="0" fill="var(--_group-fill)" stroke="var(--_node-stroke)" stroke-width="1" />
<rect x="60" y="76" width="433.5" height="28" rx="0" ry="0" fill="var(--_group-hdr)" stroke="var(--_node-stroke)" stroke-width="1" />
<text x="72" y="90" dy="0.35em" font-size="12" font-weight="600" fill="var(--_text-sec)">Point 1: Deep Agents / LangChain</text>
<rect x="513.5" y="76" width="562.2000000000002" height="112" rx="0" ry="0" fill="var(--_group-fill)" stroke="var(--_node-stroke)" stroke-width="1" />
<rect x="513.5" y="76" width="562.2000000000002" height="28" rx="0" ry="0" fill="var(--_group-hdr)" stroke="var(--_node-stroke)" stroke-width="1" />
<text x="525.5" y="90" dy="0.35em" font-size="12" font-weight="600" fill="var(--_text-sec)">Point 2: LlamaIndex RAG</text>
<rect x="1095.7000000000003" y="76" width="526.4499999999998" height="112" rx="0" ry="0" fill="var(--_group-fill)" stroke="var(--_node-stroke)" stroke-width="1" />
<rect x="1095.7000000000003" y="76" width="526.4499999999998" height="28" rx="0" ry="0" fill="var(--_group-hdr)" stroke="var(--_node-stroke)" stroke-width="1" />
<text x="1107.7000000000003" y="90" dy="0.35em" font-size="12" font-weight="600" fill="var(--_text-sec)">Point 3: Custom Operations</text>
<rect x="444.1750000000001" y="349" width="700.85" height="216" rx="0" ry="0" fill="var(--_group-fill)" stroke="var(--_node-stroke)" stroke-width="1" />
<rect x="444.1750000000001" y="349" width="700.85" height="28" rx="0" ry="0" fill="var(--_group-hdr)" stroke="var(--_node-stroke)" stroke-width="1" />
<text x="456.1750000000001" y="363" dy="0.35em" font-size="12" font-weight="600" fill="var(--_text-sec)">LangFuse Dashboard</text>
<polyline points="276.75,168 276.75,475 579.8500000000001,475" fill="none" stroke="var(--_line)" stroke-width="0.75" marker-end="url(#arrowhead)" />
<polyline points="794.6000000000001,168 794.6000000000001,475 579.8500000000001,475" fill="none" stroke="var(--_line)" stroke-width="0.75" marker-end="url(#arrowhead)" />
<polyline points="1358.9250000000002,168 1358.9250000000002,475 579.8500000000001,475" fill="none" stroke="var(--_line)" stroke-width="0.75" marker-end="url(#arrowhead)" />
<polyline points="699.5250000000001,475 719.5250000000001,475 719.5250000000001,415 739.5250000000001,415" fill="none" stroke="var(--_line)" stroke-width="0.75" marker-end="url(#arrowhead)" />
<polyline points="699.5250000000001,475 782.4250000000002,475" fill="none" stroke="var(--_line)" stroke-width="0.75" marker-end="url(#arrowhead)" />
<polyline points="699.5250000000001,475 719.5250000000001,475 719.5250000000001,535 771.7,535" fill="none" stroke="var(--_line)" stroke-width="0.75" marker-end="url(#arrowhead)" />
<rect x="243.01" y="263" width="67.48" height="27" rx="4" ry="4" fill="var(--bg)" stroke="var(--_inner-stroke)" stroke-width="0.5" />
<text x="276.75" y="276.5" text-anchor="middle" dy="0.35em" font-size="11" font-weight="400" fill="var(--_text-muted)">callbacks</text>
<rect x="749.4200000000002" y="263" width="90.36" height="27" rx="4" ry="4" fill="var(--bg)" stroke="var(--_inner-stroke)" stroke-width="0.5" />
<text x="794.6000000000001" y="276.5" text-anchor="middle" dy="0.35em" font-size="11" font-weight="400" fill="var(--_text-muted)">OpenInference</text>
<rect x="1325.1850000000002" y="263" width="67.48" height="27" rx="4" ry="4" fill="var(--bg)" stroke="var(--_inner-stroke)" stroke-width="0.5" />
<text x="1358.9250000000002" y="276.5" text-anchor="middle" dy="0.35em" font-size="11" font-weight="400" fill="var(--_text-muted)">decorator</text>
<rect x="81.99999999999997" y="132" width="389.50000000000006" height="36" rx="0" ry="0" fill="var(--_node-fill)" stroke="var(--_node-stroke)" stroke-width="0.75" />
<rect x="535.5000000000001" y="132" width="518.2" height="36" rx="0" ry="0" fill="var(--_node-fill)" stroke="var(--_node-stroke)" stroke-width="0.75" />
<rect x="1117.7000000000003" y="132" width="482.45000000000005" height="36" rx="0" ry="0" fill="var(--_node-fill)" stroke="var(--_node-stroke)" stroke-width="0.75" />
<rect x="460.1750000000001" y="457" width="239.35000000000002" height="36" rx="0" ry="0" fill="var(--_node-fill)" stroke="var(--_node-stroke)" stroke-width="0.75" />
<rect x="739.5250000000001" y="397" width="389.50000000000006" height="36" rx="0" ry="0" fill="var(--_node-fill)" stroke="var(--_node-stroke)" stroke-width="0.75" />
<rect x="782.4250000000002" y="457" width="303.70000000000005" height="36" rx="0" ry="0" fill="var(--_node-fill)" stroke="var(--_node-stroke)" stroke-width="0.75" />
<rect x="771.7" y="517" width="325.15000000000003" height="36" rx="0" ry="0" fill="var(--_node-fill)" stroke="var(--_node-stroke)" stroke-width="0.75" />
<text x="276.75" y="150" text-anchor="middle" dy="0.35em" font-size="13" font-weight="500" fill="var(--_text)">CallbackHandler: LLM calls, tools, tokens, latency</text>
<text x="794.6000000000001" y="150" text-anchor="middle" dy="0.35em" font-size="13" font-weight="500" fill="var(--_text)">LlamaIndexInstrumentor: Ingestion, embeddings, retrieval, re-ranking</text>
<text x="1358.9250000000002" y="150" text-anchor="middle" dy="0.35em" font-size="13" font-weight="500" fill="var(--_text)">@observe() decorator: Memory, Graphiti, approvals, custom logic</text>
<text x="579.8500000000001" y="475" text-anchor="middle" dy="0.35em" font-size="13" font-weight="500" fill="var(--_text)">Traces — Complete call chains</text>
<text x="934.2750000000001" y="415" text-anchor="middle" dy="0.35em" font-size="13" font-weight="500" fill="var(--_text)">Evaluations — Relevance, faithfulness, helpfulness</text>
<text x="934.2750000000002" y="475" text-anchor="middle" dy="0.35em" font-size="13" font-weight="500" fill="var(--_text)">Cost Tracking — Per model, per session</text>
<text x="934.2750000000001" y="535" text-anchor="middle" dy="0.35em" font-size="13" font-weight="500" fill="var(--_text)">Prompt Management — Versioning and deploy</text>
</svg>