<svg xmlns="http://www.w3.org/2000/svg" viewBox="0 0 2080.795 738" width="2080.795" height="738" style="--bg:#1a1b26;--fg:#a9b1d6;--line:#3d59a1;--accent:#7aa2f7;--muted:#565f89;background:var(--bg)">
<style>
  @import url('https://fonts.googleapis.com/css2?family=Inter:wght@400;500;600;700&amp;display=swap');
  text { font-family: 'Inter', system-ui, sans-serif; }
  svg {
    /* Derived from --bg and --fg (overridable via --line, --accent, etc.) */
    --_text:          var(--fg);
    --_text-sec:      var(--muted, color-mix(in srgb, var(--fg) 60%, var(--bg)));
    --_text-muted:    var(--muted, color-mix(in srgb, var(--fg) 40%, var(--bg)));
    --_text-faint:    color-mix(in srgb, var(--fg) 25%, var(--bg));
    --_line:          var(--line, color-mix(in srgb, var(--fg) 30%, var(--bg)));
    --_arrow:         var(--accent, color-mix(in srgb, var(--fg) 50%, var(--bg)));
    --_node-fill:     var(--surface, color-mix(in srgb, var(--fg) 3%, var(--bg)));
    --_node-stroke:   var(--border, color-mix(in srgb, var(--fg) 20%, var(--bg)));
    --_group-fill:    var(--bg);
    --_group-hdr:     color-mix(in srgb, var(--fg) 5%, var(--bg));
    --_inner-stroke:  color-mix(in srgb, var(--fg) 12%, var(--bg));
    --_key-badge:     color-mix(in srgb, var(--fg) 10%, var(--bg));
  }
</style>
<defs>
  <marker id="arrowhead" markerWidth="8" markerHeight="4.8" refX="8" refY="2.4" orient="auto">
    <polygon points="0 0, 8 2.4, 0 4.8" fill="var(--_arrow)" />
  </marker>
  <marker id="arrowhead-start" markerWidth="8" markerHeight="4.8" refX="0" refY="2.4" orient="auto-start-reverse">
    <polygon points="8 0, 0 2.4, 8 4.8" fill="var(--_arrow)" />
  </marker>
</defs>
<rect x="190.54500000000007" y="40" width="1616.2875" height="152" rx="0" ry="0" fill="var(--_group-fill)" stroke="var(--_node-stroke)" stroke-width="1" />
<rect x="190.54500000000007" y="40" width="1616.2875" height="28" rx="0" ry="0" fill="var(--_group-hdr)" stroke="var(--_node-stroke)" stroke-width="1" />
<text x="202.54500000000007" y="54" dy="0.35em" font-size="12" font-weight="600" fill="var(--_text-sec)">User Data</text>
<rect x="40" y="277" width="2000.795" height="421" rx="0" ry="0" fill="var(--_group-fill)" stroke="var(--_node-stroke)" stroke-width="1" />
<rect x="40" y="277" width="2000.795" height="28" rx="0" ry="0" fill="var(--_group-hdr)" stroke="var(--_node-stroke)" stroke-width="1" />
<text x="52" y="291" dy="0.35em" font-size="12" font-weight="600" fill="var(--_text-sec)">Where each data type is stored</text>
<rect x="60" y="313" width="1033.545" height="365" rx="0" ry="0" fill="var(--_group-fill)" stroke="var(--_node-stroke)" stroke-width="1" />
<rect x="60" y="313" width="1033.545" height="28" rx="0" ry="0" fill="var(--_group-hdr)" stroke="var(--_node-stroke)" stroke-width="1" />
<text x="72" y="327" dy="0.35em" font-size="12" font-weight="600" fill="var(--_text-sec)">PostgreSQL</text>
<rect x="1516.995" y="313" width="503.8000000000002" height="365" rx="0" ry="0" fill="var(--_group-fill)" stroke="var(--_node-stroke)" stroke-width="1" />
<rect x="1516.995" y="313" width="503.8000000000002" height="28" rx="0" ry="0" fill="var(--_group-hdr)" stroke="var(--_node-stroke)" stroke-width="1" />
<text x="1528.995" y="327" dy="0.35em" font-size="12" font-weight="600" fill="var(--_text-sec)">FalkorDB</text>
<rect x="1113.545" y="566" width="383.4499999999998" height="112" rx="0" ry="0" fill="var(--_group-fill)" stroke="var(--_node-stroke)" stroke-width="1" />
<rect x="1113.545" y="566" width="383.4499999999998" height="28" rx="0" ry="0" fill="var(--_group-hdr)" stroke="var(--_node-stroke)" stroke-width="1" />
<text x="1125.545" y="580" dy="0.35em" font-size="12" font-weight="600" fill="var(--_text-sec)">Deep Agents StoreBackend</text>
<polyline points="310.77000000000004,152 310.77000000000004,369" fill="none" stroke="var(--_line)" stroke-width="0.75" marker-end="url(#arrowhead)" />
<polyline points="310.77000000000004,405 310.77000000000004,425 241.00000000000006,425 241.00000000000006,622" fill="none" stroke="var(--_line)" stroke-width="0.75" marker-end="url(#arrowhead)" />
<polyline points="310.77000000000004,405 310.77000000000004,425 648.6875,425 648.6875,640 1135.545,640" fill="none" stroke="var(--_line)" stroke-width="0.75" stroke-dasharray="4 4" marker-end="url(#arrowhead)" />
<polyline points="656.3450000000001,152 656.3450000000001,369" fill="none" stroke="var(--_line)" stroke-width="0.75" marker-end="url(#arrowhead)" />
<polyline points="1404.77,152 1404.77,172 933.9950000000001,172 933.9950000000001,369" fill="none" stroke="var(--_line)" stroke-width="0.75" marker-end="url(#arrowhead)" />
<polyline points="1404.77,152 1404.77,172 1754.5950000000003,172 1754.5950000000003,369" fill="none" stroke="var(--_line)" stroke-width="0.75" marker-end="url(#arrowhead)" />
<polyline points="1754.5950000000003,405 1754.5950000000003,425 1633.645,425 1633.645,622" fill="none" stroke="var(--_line)" stroke-width="0.75" marker-end="url(#arrowhead)" />
<polyline points="1754.5950000000003,405 1754.5950000000003,425 1875.545,425 1875.545,622" fill="none" stroke="var(--_line)" stroke-width="0.75" marker-end="url(#arrowhead)" />
<rect x="245.57000000000005" y="247" width="130.4" height="27" rx="4" ry="4" fill="var(--bg)" stroke="var(--_inner-stroke)" stroke-width="0.5" />
<text x="310.77000000000004" y="260.5" text-anchor="middle" dy="0.35em" font-size="11" font-weight="400" fill="var(--_text-muted)">rethink_memory_block</text>
<rect x="204.40000000000006" y="500" width="73.2" height="27" rx="4" ry="4" fill="var(--bg)" stroke="var(--_inner-stroke)" stroke-width="0.5" />
<text x="241.00000000000006" y="513.5" text-anchor="middle" dy="0.35em" font-size="11" font-weight="400" fill="var(--_text-muted)">every edit</text>
<rect x="557.7475" y="500" width="181.88" height="27" rx="4" ry="4" fill="var(--bg)" stroke="var(--_inner-stroke)" stroke-width="0.5" />
<text x="648.6875" y="513.5" text-anchor="middle" dy="0.35em" font-size="11" font-weight="400" fill="var(--_text-muted)">when block exceeds char_limit</text>
<rect x="594.0050000000001" y="247" width="124.68" height="27" rx="4" ry="4" fill="var(--bg)" stroke="var(--_inner-stroke)" stroke-width="0.5" />
<text x="656.3450000000001" y="260.5" text-anchor="middle" dy="0.35em" font-size="11" font-weight="400" fill="var(--_text-muted)">ingest_documents.py</text>
<rect x="871.6550000000001" y="247" width="124.68" height="27" rx="4" ry="4" fill="var(--bg)" stroke="var(--_inner-stroke)" stroke-width="0.5" />
<text x="933.9950000000001" y="260.5" text-anchor="middle" dy="0.35em" font-size="11" font-weight="400" fill="var(--_text-muted)">automatic embedding</text>
<rect x="1686.5350000000003" y="247" width="136.12" height="27" rx="4" ry="4" fill="var(--bg)" stroke="var(--_inner-stroke)" stroke-width="0.5" />
<text x="1754.5950000000003" y="260.5" text-anchor="middle" dy="0.35em" font-size="11" font-weight="400" fill="var(--_text-muted)">automatic add_episode</text>
<rect x="1568.445" y="500" width="130.4" height="27" rx="4" ry="4" fill="var(--bg)" stroke="var(--_inner-stroke)" stroke-width="0.5" />
<text x="1633.645" y="513.5" text-anchor="middle" dy="0.35em" font-size="11" font-weight="400" fill="var(--_text-muted)">automatic extraction</text>
<rect x="1810.345" y="500" width="130.4" height="27" rx="4" ry="4" fill="var(--bg)" stroke="var(--_inner-stroke)" stroke-width="0.5" />
<text x="1875.545" y="513.5" text-anchor="middle" dy="0.35em" font-size="11" font-weight="400" fill="var(--_text-muted)">automatic extraction</text>
<rect x="212.54500000000002" y="116" width="196.45000000000002" height="36" rx="0" ry="0" fill="var(--_node-fill)" stroke="var(--_node-stroke)" stroke-width="0.75" />
<rect x="590.2950000000001" y="116" width="132.10000000000002" height="36" rx="0" ry="0" fill="var(--_node-fill)" stroke="var(--_node-stroke)" stroke-width="0.75" />
<rect x="1342.295" y="116" width="124.95" height="36" rx="0" ry="0" fill="var(--_node-fill)" stroke="var(--_node-stroke)" stroke-width="0.75" />
<rect x="105.29500000000002" y="369" width="410.95000000000005" height="36" rx="0" ry="0" fill="var(--_node-fill)" stroke="var(--_node-stroke)" stroke-width="0.75" />
<rect x="128.47500000000005" y="622" width="225.05" height="36" rx="0" ry="0" fill="var(--_node-fill)" stroke="var(--_node-stroke)" stroke-width="0.75" />
<rect x="540.2450000000001" y="369" width="232.20000000000002" height="36" rx="0" ry="0" fill="var(--_node-fill)" stroke="var(--_node-stroke)" stroke-width="0.75" />
<rect x="796.4450000000002" y="369" width="275.1" height="36" rx="0" ry="0" fill="var(--_node-fill)" stroke="var(--_node-stroke)" stroke-width="0.75" />
<rect x="1538.995" y="622" width="189.3" height="36" rx="0" ry="0" fill="var(--_node-fill)" stroke="var(--_node-stroke)" stroke-width="0.75" />
<rect x="1752.295" y="622" width="246.50000000000003" height="36" rx="0" ry="0" fill="var(--_node-fill)" stroke="var(--_node-stroke)" stroke-width="0.75" />
<rect x="1674.2450000000003" y="369" width="160.70000000000002" height="36" rx="0" ry="0" fill="var(--_node-fill)" stroke="var(--_node-stroke)" stroke-width="0.75" />
<rect x="1135.545" y="622" width="339.45000000000005" height="36" rx="0" ry="0" fill="var(--_node-fill)" stroke="var(--_node-stroke)" stroke-width="0.75" />
<text x="310.77000000000004" y="134" text-anchor="middle" dy="0.35em" font-size="13" font-weight="500" fill="var(--_text)">Profile and Preferences</text>
<text x="656.345" y="134" text-anchor="middle" dy="0.35em" font-size="13" font-weight="500" fill="var(--_text)">Documents / KB</text>
<text x="1404.77" y="134" text-anchor="middle" dy="0.35em" font-size="13" font-weight="500" fill="var(--_text)">Conversations</text>
<text x="310.77000000000004" y="387" text-anchor="middle" dy="0.35em" font-size="13" font-weight="500" fill="var(--_text)">memory_blocks (Layer 1) — with char_limit + read_only</text>
<text x="241.00000000000006" y="640" text-anchor="middle" dy="0.35em" font-size="13" font-weight="500" fill="var(--_text)">block_history (audit trail)</text>
<text x="656.3450000000001" y="387" text-anchor="middle" dy="0.35em" font-size="13" font-weight="500" fill="var(--_text)">kb_docs (Layer 2 — pgvector)</text>
<text x="933.9950000000001" y="387" text-anchor="middle" dy="0.35em" font-size="13" font-weight="500" fill="var(--_text)">conversations (Layer 2 — pgvector)</text>
<text x="1633.645" y="640" text-anchor="middle" dy="0.35em" font-size="13" font-weight="500" fill="var(--_text)">Entity Nodes (Layer 3)</text>
<text x="1875.545" y="640" text-anchor="middle" dy="0.35em" font-size="13" font-weight="500" fill="var(--_text)">Entity Edges / Facts (Layer 3)</text>
<text x="1754.5950000000003" y="387" text-anchor="middle" dy="0.35em" font-size="13" font-weight="500" fill="var(--_text)">Episodes (Layer 3)</text>
<text x="1305.27" y="640" text-anchor="middle" dy="0.35em" font-size="13" font-weight="500" fill="var(--_text)">/memory/overflow/ — offloaded block content</text>
</svg>